<?xml version="1.0" encoding="UTF-8"?>
<svg id="Layer_1" xmlns="http://www.w3.org/2000/svg" version="1.1" viewBox="0 0 500 500">
  <!-- Generator: Adobe Illustrator 29.8.3, SVG Export Plug-In . SVG Version: 2.1.1 Build 3)  -->
  <defs>
    <style>
      .st0 {
        fill: #231f20;
      }

      .st1 {
        fill: #f48632;
      }

      .st2 {
        fill: #2dabe2;
      }
    </style>
  </defs>
  <path class="st1" d="M383.6,283.34c-9.13,17.51-22.51,32.59-38.17,44.58-43.76,33.47-112.89,59.24-168,62-45.65,2.29-122.49-10.67-100.84-74.41,4-11.79,10.95-21.43,18.04-31.47,1.3-.14.58,1.41.36,2.09-28.39,84.46,97.1,78.89,146.68,68.98,37.63-7.52,97.27-32.18,126.35-57.25,4.46-3.84,8.74-9.3,13.15-13.14.78-.68,1.14-1.66,2.43-1.37Z"/>
  <path class="st2" d="M123.32,218.04c9.11-20.02,22.46-37.28,38.09-50.99,43.67-38.28,112.65-67.75,167.64-70.91,45.55-2.61,135.76,6.03,105.39,82.87-5.17,13.08-17.65,28.68-27.1,39.08-1.3.16-.58-1.62-.36-2.39,28.33-96.6-92.56-91.07-142.04-79.74-37.55,8.6-97.06,36.81-126.09,65.48-4.45,4.39-8.72,10.64-13.12,15.03-.78.77-1.14,1.9-2.42,1.57Z"/>
  <g>
    <path class="st0" d="M106.56,224.28l-9.56,12.41h-17.05v35.3h-14.76v-35.3h-22.39l9.56-12.41h54.2Z"/>
    <path class="st0" d="M166.47,259.73l-9.49,12.27h-45.93v-47.71h55.27l-9.56,12.41h-30.88v5.71h37.8l-8.49,10.84h-29.31v6.49h40.58Z"/>
    <path class="st0" d="M232.23,259.73l-9.49,12.27h-23.96c-16.55,0-28.74-10.48-28.74-24.32s12.2-23.39,28.74-23.39h33.45l-9.49,12.41h-23.96c-7.99,0-13.98,4.78-13.98,11.62s5.92,11.41,13.98,11.41h33.45Z"/>
    <path class="st0" d="M295.28,271.99h-14.69v-18.4h-28.38v18.4h-14.83v-47.71h14.83v16.9h28.38v-16.9h14.69v47.71Z"/>
    <path class="st0" d="M346.77,270.21l-29.24-26.25v28.03h-13.41v-39.58c0-6.35,3.85-8.91,8.06-8.91,1.78,0,3.57.43,5.92,2.57l29.24,26.25v-28.03h13.48v39.51c0,6.35-3.85,8.99-8.13,8.99-1.85,0-3.64-.43-5.92-2.57Z"/>
    <path class="st0" d="M437.77,248.1c0,17.04-11.7,24.68-34.87,24.68s-34.87-7.63-34.87-24.68,11.62-24.6,34.87-24.6,34.87,7.56,34.87,24.6ZM423.08,248.1c0-10.27-5.35-12.2-20.18-12.2s-20.18,1.93-20.18,12.2,5.35,12.27,20.18,12.27,20.18-2,20.18-12.27Z"/>
  </g>
  <path class="st1" d="M390.44,216.05c-1.16.24-1.42-.29-1.98-1.13-2.12-3.16-3.53-9.34-6.06-13.33-24.31-38.39-92-35.6-130.72-26.89-32.35,7.28-60.09,20.4-88.39,37-1.17.68-3.69,2.42-5.01,1.92l10.84-11.28c31.37-27.49,79.95-47.96,121.23-53.37,31.26-4.1,85.09-2.53,100.79,30.74,5.77,12.22,3.51,24.08-.71,36.34Z"/>
  <path class="st2" d="M114.23,279.16c1.16-.24,1.42.29,1.98,1.13,2.12,3.16,3.53,9.34,6.06,13.33,24.31,38.39,92,35.6,130.72,26.89,32.35-7.28,70.4-24.29,98.7-40.9,1.17-.68,3.69-2.42,5.01-1.92l-10.84,11.28c-31.37,27.49-75.14,53.77-131.54,57.27-31.47,1.95-85.09,2.53-100.79-30.74-5.77-12.22-3.51-24.08.71-36.34Z"/>
</svg>